<svg xmlns="http://www.w3.org/2000/svg" xmlns:xlink="http://www.w3.org/1999/xlink" width="294.571" height="45.444" viewBox="0 0 294.571 45.444">
  <defs>
    <linearGradient id="linear-gradient" x1="0.5" x2="0.513" y2="1.47" gradientUnits="objectBoundingBox">
      <stop offset="0" stop-color="#15dbb8"/>
      <stop offset="1" stop-color="#6045d8"/>
    </linearGradient>
  </defs>
  <g id="Group_17" data-name="Group 17" transform="translate(-145.525 -68.755)">
    <path id="Path_11" data-name="Path 11" d="M25.563,8.953H12.76l-1.946,5.889H.264l13.161-36.1H25l13.11,36.1h-10.6ZM23.053,1.271,19.161-10.4,15.32,1.271Zm23.4-17.822a6.13,6.13,0,0,1-4.276-1.46,4.73,4.73,0,0,1-1.613-3.662,4.865,4.865,0,0,1,1.613-3.738A6.065,6.065,0,0,1,46.457-26.9a5.992,5.992,0,0,1,4.225,1.485,4.865,4.865,0,0,1,1.613,3.738,4.73,4.73,0,0,1-1.613,3.662A6.056,6.056,0,0,1,46.457-16.55Zm4.968,2.663v28.73H41.387v-28.73Zm57.664-7.374v36.1H99.051V-5.079L92.24,14.842h-8.4L76.979-5.233V14.842H66.941v-36.1H79.079L88.143,2.193,97-21.262Zm19.1,36.463a16.3,16.3,0,0,1-7.707-1.792,13.211,13.211,0,0,1-5.352-5.121A15.247,15.247,0,0,1,113.186.452a14.989,14.989,0,0,1,1.972-7.784,13.382,13.382,0,0,1,5.377-5.121,17.467,17.467,0,0,1,15.415,0,13.382,13.382,0,0,1,5.377,5.121A14.989,14.989,0,0,1,143.3.452a15.126,15.126,0,0,1-1.972,7.81,13.291,13.291,0,0,1-5.4,5.147A16.448,16.448,0,0,1,128.191,15.2Zm0-8.706A4.53,4.53,0,0,0,131.7,4.933,6.47,6.47,0,0,0,133.107.452,6.371,6.371,0,0,0,131.7-4a4.508,4.508,0,0,0-3.457-1.536A4.43,4.43,0,0,0,124.811-4,6.449,6.449,0,0,0,123.428.452a6.7,6.7,0,0,0,1.331,4.507A4.332,4.332,0,0,0,128.191,6.495Zm32.98-1.127,5.377-19.256h10.7l-9.884,28.73h-12.5l-9.884-28.73h10.7ZM185.7-16.55a6.13,6.13,0,0,1-4.276-1.46,4.73,4.73,0,0,1-1.613-3.662,4.865,4.865,0,0,1,1.613-3.738A6.065,6.065,0,0,1,185.7-26.9a5.992,5.992,0,0,1,4.225,1.485,4.865,4.865,0,0,1,1.613,3.738,4.73,4.73,0,0,1-1.613,3.662A6.056,6.056,0,0,1,185.7-16.55Zm4.968,2.663v28.73H180.631v-28.73ZM223.854.145A18.2,18.2,0,0,1,223.7,2.5h-19a5.284,5.284,0,0,0,1.306,3.508,3.988,3.988,0,0,0,2.945,1.152,3.69,3.69,0,0,0,3.585-2.253h10.7a12.525,12.525,0,0,1-2.586,5.3,13.335,13.335,0,0,1-4.839,3.662,15.366,15.366,0,0,1-6.453,1.332,15.583,15.583,0,0,1-7.554-1.792,12.873,12.873,0,0,1-5.172-5.121A15.744,15.744,0,0,1,194.766.452a15.774,15.774,0,0,1,1.844-7.81,12.749,12.749,0,0,1,5.147-5.1,15.693,15.693,0,0,1,7.6-1.792,15.8,15.8,0,0,1,7.528,1.741,12.542,12.542,0,0,1,5.121,4.993A15.267,15.267,0,0,1,223.854.145ZM213.611-2.365a3.6,3.6,0,0,0-1.229-2.893,4.565,4.565,0,0,0-3.073-1.05,4.51,4.51,0,0,0-3.021,1,4.86,4.86,0,0,0-1.536,2.945Z" transform="translate(216.242 97.745)" fill="url(#linear-gradient)"/>
    <g id="Group_16" data-name="Group 16" transform="translate(145.525 68.755)">
      <path id="Path_4" data-name="Path 4" d="M14.664,23.828A5.164,5.164,0,1,0,9.5,18.664a5.164,5.164,0,0,0,5.164,5.164Zm0-6.2a1.033,1.033,0,1,1-1.033,1.033A1.033,1.033,0,0,1,14.664,17.631Z" transform="translate(8.076 4.058)" fill="url(#linear-gradient)"/>
      <path id="Path_5" data-name="Path 5" d="M14.664,17.828A5.164,5.164,0,1,0,9.5,12.664a5.164,5.164,0,0,0,5.164,5.164Zm0-6.2a1.033,1.033,0,1,1-1.033,1.033A1.033,1.033,0,0,1,14.664,11.631Z" transform="translate(8.076 -2.336)" fill="url(#linear-gradient)"/>
      <path id="Path_6" data-name="Path 6" d="M20.314,21.928a5.164,5.164,0,1,0-5.164-5.164A5.164,5.164,0,0,0,20.314,21.928Zm0-6.2a1.033,1.033,0,1,1-1.033,1.033A1.053,1.053,0,0,1,20.314,15.731Z" transform="translate(14.097 2.033)" fill="url(#linear-gradient)"/>
      <path id="Path_7" data-name="Path 7" d="M18.164,18.26a5.164,5.164,0,1,0,5.164,5.164,5.164,5.164,0,0,0-5.164-5.164Zm0,6.2A1.033,1.033,0,1,1,19.2,23.424,1.033,1.033,0,0,1,18.164,24.457Z" transform="translate(11.806 9.131)" fill="url(#linear-gradient)"/>
      <path id="Path_8" data-name="Path 8" d="M11.164,18.26a5.164,5.164,0,1,0,5.164,5.164A5.164,5.164,0,0,0,11.164,18.26Zm0,6.2A1.033,1.033,0,1,1,12.2,23.424,1.033,1.033,0,0,1,11.164,24.457Z" transform="translate(4.347 9.131)" fill="url(#linear-gradient)"/>
      <path id="Path_9" data-name="Path 9" d="M14.178,16.764a5.164,5.164,0,1,0-5.164,5.164,5.164,5.164,0,0,0,5.164-5.164Zm-6.2,0a1.033,1.033,0,0,1,1.033-1.033,1.053,1.053,0,0,1,1.033,1.033,1.033,1.033,0,0,1-2.066,0Z" transform="translate(2.055 2.033)" fill="url(#linear-gradient)"/>
      <path id="Path_10" data-name="Path 10" d="M62.751,47.449,58.62,39.186a2.066,2.066,0,0,0-1.838-1.136H43.954A22.722,22.722,0,1,0,23.731,50.444H60.913a2.066,2.066,0,0,0,1.838-3ZM5.141,27.722A18.591,18.591,0,1,1,38.521,38.939a18.24,18.24,0,0,1-1.281,1.508l-.124.145a18.59,18.59,0,0,1-3.057,2.6c-.227.165-.475.289-.7.434a8.778,8.778,0,0,1-.95.558l-.888.434c-.289.124-.6.269-.909.372a9.709,9.709,0,0,1-.93.351l-.992.289-.888.227a8.421,8.421,0,0,0-1.219.227l-.744.1a16.98,16.98,0,0,1-2.107.124A18.591,18.591,0,0,1,5.141,27.722Zm32.1,18.219a18.467,18.467,0,0,0,1.57-1.281l.516-.454a22.247,22.247,0,0,0,1.921-2.066h3.78l2.066,4.131H36.766A3.966,3.966,0,0,0,37.241,45.941Zm14.459.372-2.066-4.131H55.5l2.066,4.131Z" transform="translate(-0.991 -5)" fill="url(#linear-gradient)"/>
    </g>
  </g>
</svg>
